#!OML:ASF E:\Style3\Style3.ASF
:FULLY-SPECIFIED
:DEGREES
3544
root 0.467266 17.7965 -0.297943 -519.498 79.0749 -538.45
lowerback -13.6921 1.17582 -6.22389
upperback -12.118 3.09008 -1.40889
thorax -5.48063 2.373 2.20636
lowerneck -10.1588 -1.65935 -4.26318
upperneck 27.305 -3.47119 11.0651
head 10.6841 -0.338798 4.40832
rclavicle -5.34731e-014 6.36111e-015
rhumerus 11.9364 7.9272 -743.376
rradius 131.025
rwrist -19.7173
rhand -15.7914 27.6097
rfingers 7.12502
rthumb 10.4014 -2.11305
lclavicle -5.34731e-014 6.36111e-015
lhumerus 312.888 15.7221 1127.08
lradius 45.5997
lwrist -2.34223
lhand -34.5498 12.4881
lfingers 7.12502
lthumb -7.71023 42.3276
rfemur -9.42234 5.52682 16.2412
rtibia 4.93687
rfoot -14.4384 -24.5335
rtoes -12.8039
lfemur -18.207 -21.4197 -13.6765
ltibia 10.3337
lfoot -10.5664 14.5311
ltoes -16.3262
3545
root 0.472491 17.7964 -0.28593 -519.645 79.5805 -538.431
lowerback -13.8087 1.14632 -6.00581
upperback -12.1554 3.04005 -1.30337
thorax -5.44641 2.33676 2.19758
lowerneck -10.0533 -1.39939 -4.11613
upperneck 27.5367 -3.07354 10.8367
head 10.7051 -0.161043 4.35433
rclavicle 2.60408e-014 2.38542e-015
rhumerus 11.0732 8.0902 -743.697
rradius 131.269
rwrist -19.6021
rhand -15.9377 27.6028
rfingers 7.12502
rthumb 10.2602 -2.12695
lclavicle 2.60408e-014 2.38542e-015
lhumerus 312.376 16.0877 1126.94
lradius 44.8258
lwrist -2.72915
lhand -34.6132 11.8967
lfingers 7.12502
lthumb -7.77143 41.7339
rfemur -9.58413 5.9694 16.1466
rtibia 5.41203
rfoot -14.4904 -24.5487
rtoes -13.4553
lfemur -17.7085 -21.4669 -13.8062
ltibia 10.0064
lfoot -10.5974 15.018
ltoes -16.1852
3546
root 0.477097 17.7953 -0.275571 -520.11 80.1265 -538.772
lowerback -13.973 1.15113 -5.78671
upperback -12.2001 3.03982 -1.23727
thorax -5.39688 2.32472 2.15225
lowerneck -9.97093 -1.17814 -3.99807
upperneck 27.8418 -2.72405 10.6071
head 10.7652 -0.0044917 4.30322
rclavicle 1.5704e-014 -3.97569e-015
rhumerus 10.1549 8.21678 -744.004
rradius 131.493
rwrist -19.4881
rhand -15.8374 27.5385
rfingers 7.12502
rthumb 10.357 -2.18643
lclavicle 1.5704e-014 -3.97569e-015
lhumerus 311.861 16.2756 1126.85
lradius 44.1602
lwrist -3.03606
lhand -34.6781 11.6761
lfingers 7.12502
lthumb -7.83409 41.511
rfemur -9.85884 6.42223 15.969
rtibia 6.01197
rfoot -14.7565 -24.5006
rtoes -13.4826
lfemur -17.1388 -21.0049 -14.167
ltibia 9.5756
lfoot -10.5508 14.9526
ltoes -15.7582
3547
root 0.482274 17.7949 -0.263379 -520.679 80.6371 -539.2
lowerback -14.1273 1.16607 -5.57111
upperback -12.2244 3.0495 -1.21112
thorax -5.32874 2.31432 2.06801
lowerneck -9.87866 -0.973349 -3.79497
upperneck 28.1117 -2.40997 10.3683
head 10.8145 0.142632 4.22745
rclavicle 2.38542e-015 7.95139e-016
rhumerus 9.12651 8.27702 -744.351
rradius 131.708
rwrist -19.4487
rhand -15.8453 27.6737
rfingers 7.12502
rthumb 10.3494 -2.05163
lclavicle 2.38542e-015 7.95139e-016
lhumerus 311.454 16.464 1126.76
lradius 43.4557
lwrist -3.32404
lhand -34.6573 11.7705
lfingers 7.12502
lthumb -7.814 41.6061
rfemur -10.0309 6.84407 15.7951
rtibia 6.48405
rfoot -14.8248 -24.5134
rtoes -13.769
lfemur -16.5915 -20.5705 -14.4984
ltibia 9.18328
lfoot -10.522 14.9151
ltoes -15.4058
3548
root 0.490591 17.7937 -0.251099 -521.333 81.1583 -539.628
lowerback -14.2822 1.16177 -5.39519
upperback -12.1869 3.03147 -1.1319
thorax -5.19583 2.28894 2.06258
lowerneck -9.70092 -0.748066 -3.69398
upperneck 28.2288 -2.05297 10.1663
head 10.7876 0.293822 4.17909
rclavicle -1.64991e-014 6.36111e-015
rhumerus 8.21079 8.42489 -744.721
rradius 131.83
rwrist -19.3359
rhand -16.092 27.9179
rfingers 7.12502
rthumb 10.1114 -1.81916
lclavicle -1.64991e-014 6.36111e-015
lhumerus 311.083 16.8859 1126.59
lradius 42.5668
lwrist -3.78584
lhand -34.6406 11.5416
lfingers 7.12502
lthumb -7.7979 41.3778
rfemur -10.0521 7.29053 15.6448
rtibia 6.87911
rfoot -14.8339 -24.5675
rtoes -14.1217
lfemur -15.9345 -20.1379 -14.8847
ltibia 8.8136
lfoot -10.2555 15.0702
ltoes -16.7116
